name ./resultDataOpenSim/trcMotMarkerGrf/sub10/grf-02-01.mot
datacolumns 19
datarows 17
range 1.38000000 1.44400000
endheader

                time	     ground_force_vx	     ground_force_vy	     ground_force_vz	     ground_force_px	     ground_force_py	     ground_force_pz	   l_ground_force_vx	   l_ground_force_vy	   l_ground_force_vz	   l_ground_force_px	   l_ground_force_py	   l_ground_force_pz	     ground_torque_x	     ground_torque_y	     ground_torque_z	   l_ground_torque_x	   l_ground_torque_y	   l_ground_torque_z	
          1.38000000	        -80.72866894	        582.53190261	        -45.92846386	          0.90122896	          0.00000000	          0.04471730	          0.00000000	          0.00000000	          0.00000000	          0.00000000	          0.00000000	          0.00000000	          0.00000000	         -2.25437145	          0.00000000	          0.00000000	          0.00000000	          0.00000000	
          1.38400000	        -73.58165189	        562.14283921	        -40.99864081	          0.90346493	          0.00000000	          0.04467893	          0.00000000	          0.00000000	          0.00000000	          0.00000000	          0.00000000	          0.00000000	          0.00000000	         -2.09145436	          0.00000000	          0.00000000	          0.00000000	          0.00000000	
          1.38800000	        -67.92464599	        542.33535673	        -35.78445762	          0.90588992	          0.00000000	          0.04458795	          0.00000000	          0.00000000	          0.00000000	          0.00000000	          0.00000000	          0.00000000	          0.00000000	         -1.92133411	          0.00000000	          0.00000000	          0.00000000	          0.00000000	
          1.39200000	        -63.94160507	        523.28353023	        -30.77835206	          0.90854570	          0.00000000	          0.04445737	          0.00000000	          0.00000000	          0.00000000	          0.00000000	          0.00000000	          0.00000000	          0.00000000	         -1.73872794	          0.00000000	          0.00000000	          0.00000000	          0.00000000	
          1.39600000	        -61.44561131	        505.07816161	        -26.41593338	          0.91141812	          0.00000000	          0.04430411	          0.00000000	          0.00000000	          0.00000000	          0.00000000	          0.00000000	          0.00000000	          0.00000000	         -1.54383306	          0.00000000	          0.00000000	          0.00000000	          0.00000000	
          1.40000000	        -59.92549450	        487.72272257	        -23.00576283	          0.91444514	          0.00000000	          0.04414509	          0.00000000	          0.00000000	          0.00000000	          0.00000000	          0.00000000	          0.00000000	          0.00000000	         -1.34209148	          0.00000000	          0.00000000	          0.00000000	          0.00000000	
          1.40400000	        -58.69356162	        471.20132069	        -20.68825081	          0.91750674	          0.00000000	          0.04399810	          0.00000000	          0.00000000	          0.00000000	          0.00000000	          0.00000000	          0.00000000	          0.00000000	         -1.14281838	          0.00000000	          0.00000000	          0.00000000	          0.00000000	
          1.40800000	        -57.08542261	        455.53826886	        -19.42515238	          0.92048446	          0.00000000	          0.04387140	          0.00000000	          0.00000000	          0.00000000	          0.00000000	          0.00000000	          0.00000000	          0.00000000	         -0.95680839	          0.00000000	          0.00000000	          0.00000000	          0.00000000	
          1.41200000	        -54.63688489	        440.79243870	        -19.02064256	          0.92330142	          0.00000000	          0.04376694	          0.00000000	          0.00000000	          0.00000000	          0.00000000	          0.00000000	          0.00000000	          0.00000000	         -0.79326313	          0.00000000	          0.00000000	          0.00000000	          0.00000000	
          1.41600000	        -51.19041644	        427.00902878	        -19.17352802	          0.92589381	          0.00000000	          0.04368766	          0.00000000	          0.00000000	          0.00000000	          0.00000000	          0.00000000	          0.00000000	          0.00000000	         -0.65684428	          0.00000000	          0.00000000	          0.00000000	          0.00000000	
          1.42000000	        -46.91936192	        414.19944415	        -19.54206134	          0.92823887	          0.00000000	          0.04363477	          0.00000000	          0.00000000	          0.00000000	          0.00000000	          0.00000000	          0.00000000	          0.00000000	         -0.54594304	          0.00000000	          0.00000000	          0.00000000	          0.00000000	
          1.42400000	        -42.27285356	        402.37934158	        -19.80293965	          0.93036048	          0.00000000	          0.04360125	          0.00000000	          0.00000000	          0.00000000	          0.00000000	          0.00000000	          0.00000000	          0.00000000	         -0.45302247	          0.00000000	          0.00000000	          0.00000000	          0.00000000	
          1.42800000	        -37.84961635	        391.61268910	        -19.70483640	          0.93233345	          0.00000000	          0.04356544	          0.00000000	          0.00000000	          0.00000000	          0.00000000	          0.00000000	          0.00000000	          0.00000000	         -0.36710521	          0.00000000	          0.00000000	          0.00000000	          0.00000000	
          1.43200000	        -34.22543050	        381.99707851	        -19.11331178	          0.93425723	          0.00000000	          0.04349429	          0.00000000	          0.00000000	          0.00000000	          0.00000000	          0.00000000	          0.00000000	          0.00000000	         -0.27748961	          0.00000000	          0.00000000	          0.00000000	          0.00000000	
          1.43600000	        -31.79172874	        373.59508641	        -18.03023047	          0.93619101	          0.00000000	          0.04336256	          0.00000000	          0.00000000	          0.00000000	          0.00000000	          0.00000000	          0.00000000	          0.00000000	         -0.17715712	          0.00000000	          0.00000000	          0.00000000	          0.00000000	
          1.44000000	        -30.65965003	        366.38426276	        -16.58128018	          0.93814311	          0.00000000	          0.04317094	          0.00000000	          0.00000000	          0.00000000	          0.00000000	          0.00000000	          0.00000000	          0.00000000	         -0.06451763	          0.00000000	          0.00000000	          0.00000000	          0.00000000	
          1.44400000	        -30.64245214	        360.27301520	        -14.98036389	          0.94007805	          0.00000000	          0.04294263	          0.00000000	          0.00000000	          0.00000000	          0.00000000	          0.00000000	          0.00000000	          0.00000000	          0.05693446	          0.00000000	          0.00000000	          0.00000000	          0.00000000	
